<svg xmlns="http://www.w3.org/2000/svg" width="16" height="16" viewBox="0 0 16 16">
  <g id="Group_18" data-name="Group 18" transform="translate(-1124 -155)">
    <rect id="Rectangle_45" data-name="Rectangle 45" width="16" height="16" transform="translate(1124 155)" fill="none"/>
    <g id="facebook" transform="translate(1128.408 157.532)">
      <g id="Layer_2" data-name="Layer 2">
        <path id="facebook-2" data-name="facebook" d="M12.683,3.3a.3.3,0,0,0-.3-.3H10.86A2.9,2.9,0,0,0,7.823,5.732v1.64H6.3a.3.3,0,0,0-.3.3v1.58a.3.3,0,0,0,.3.3H7.823V13.63a.3.3,0,0,0,.3.3H9.949a.3.3,0,0,0,.3-.3V9.559h1.592a.3.3,0,0,0,.3-.225l.437-1.58a.3.3,0,0,0-.292-.383H10.253V5.732a.608.608,0,0,1,.608-.547h1.519a.3.3,0,0,0,.3-.3Z" transform="translate(-6 -2.994)" fill="#0c1023"/>
      </g>
    </g>
  </g>
</svg>
