<svg width="154" height="25" viewBox="0 0 154 25" fill="none" xmlns="http://www.w3.org/2000/svg">
<path d="M18.5286 0C21.5606 0 24.0185 2.45792 24.0185 5.48991V18.5284C24.0185 21.5604 21.5606 24.0183 18.5286 24.0183H5.48995C2.45794 24.0183 1.65805e-08 21.5604 0 18.5284V5.48991C0 2.45792 2.45794 1.65794e-08 5.48995 0H18.5286ZM5.48995 2.05872C3.59494 2.05872 2.05873 3.59491 2.05873 5.48991V18.5284C2.05873 20.4234 3.59494 21.9596 5.48995 21.9596H18.5286C20.4236 21.9596 21.9598 20.4234 21.9598 18.5284V5.48991C21.9598 3.59491 20.4236 2.05872 18.5286 2.05872H5.48995Z" fill="#363F44"/>
<path d="M6.17515 15.955C4.65914 15.955 3.43018 14.726 3.43018 13.21L3.43018 6.17606C3.43018 4.66006 4.65914 3.4311 6.17515 3.4311L12.6945 3.4311L12.6945 15.955L6.17515 15.955Z" fill="#FFD13B"/>
<path d="M12.6958 15.955L12.6958 3.4311L15.2692 3.4311L15.2692 15.955L12.6958 15.955Z" fill="#F86C5C"/>
<path d="M15.2686 15.955L15.2686 3.4311L18.0135 3.4311L18.0135 15.955L15.2686 15.955Z" fill="#4AD78D"/>
<path d="M18.0137 15.955L18.0137 3.4311V3.4311C19.4349 3.4311 20.5871 4.58325 20.5871 6.0045L20.5871 13.3816C20.5871 14.8028 19.4349 15.955 18.0137 15.955V15.955Z" fill="#7373DF"/>
<path d="M149.469 12.9321C151.746 13.4199 154 14.1737 154 16.7457C154 19.1404 152.151 20.4485 148.951 20.4485C144.826 20.4485 143.248 18.6304 143.136 16.3245H146.517C146.629 17.4552 147.396 18.0096 148.816 18.0096C149.83 18.0096 150.393 17.677 150.393 17.034C150.393 16.0584 149.312 15.9253 147.486 15.5262C145.525 15.105 143.361 14.3954 143.361 12.023C143.361 9.96095 145.164 8.3867 148.41 8.3867C152.106 8.3867 153.549 10.227 153.662 12.2225H150.281C150.168 11.3135 149.672 10.8257 148.5 10.8257C147.486 10.8257 146.967 11.1804 146.967 11.7347C146.967 12.533 147.689 12.5551 149.469 12.9321Z" fill="#F86C5C"/>
<path d="M136.115 17.7878C137.355 17.7878 137.941 17.2114 138.166 16.657H141.75C141.119 18.9408 139.316 20.4485 136.183 20.4485C132.351 20.4485 130.029 17.9652 130.029 14.4176C130.029 10.9587 132.306 8.3867 135.98 8.3867C139.924 8.3867 141.93 11.2248 141.93 15.3489H133.636C133.636 16.9453 134.83 17.7878 136.115 17.7878ZM135.98 10.8257C134.605 10.8257 133.636 11.6239 133.636 13.1981H138.324C138.324 11.6239 137.355 10.8257 135.98 10.8257Z" fill="#F86C5C"/>
<path d="M124.499 8.74147H128.105V20.0938H124.499V18.453H124.454C123.845 19.4951 122.718 20.4485 120.667 20.4485C118.436 20.4485 116.926 19.0073 116.926 16.4131V8.74147H120.532V15.2824C120.532 16.9896 121.141 17.5661 122.335 17.5661C123.71 17.5661 124.499 16.8788 124.499 15.3045V8.74147Z" fill="#F86C5C"/>
<path d="M100.717 4.24048H104.774V10.4488H110.297V4.24048H114.354V20.0938H110.297V13.7081H104.774V20.0938H100.717V4.24048Z" fill="#F86C5C"/>
<path d="M92.7731 17.7878C94.0128 17.7878 94.5988 17.2114 94.8242 16.657H98.408C97.7769 18.9408 95.9737 20.4485 92.8408 20.4485C89.0091 20.4485 86.6875 17.9652 86.6875 14.4176C86.6875 10.9587 88.964 8.3867 92.6379 8.3867C96.5823 8.3867 98.5883 11.2248 98.5883 15.3489H90.2938C90.2938 16.9453 91.4884 17.7878 92.7731 17.7878ZM92.6379 10.8257C91.263 10.8257 90.2938 11.6239 90.2938 13.1981H94.982C94.982 11.6239 94.0128 10.8257 92.6379 10.8257Z" fill="#363F44"/>
<path d="M81.1574 8.74146H84.7637V18.9851C84.7637 22.7323 82.5774 24.0183 79.0838 24.0183C75.4324 24.0183 73.7419 22.1558 73.3362 20.3377H76.9425C77.1679 20.9585 77.7314 21.4685 78.9936 21.4685C80.6165 21.4685 81.1574 20.6259 81.1574 18.7412V18.0761H81.1123C80.6615 18.6747 79.6473 19.5616 77.9568 19.5616C75.0041 19.5616 73.1108 17.2557 73.1108 13.9742C73.1108 10.6926 75.0041 8.3867 77.9568 8.3867C79.6473 8.3867 80.6615 9.2736 81.1123 9.87226H81.1574V8.74146ZM78.9035 16.9009C80.3685 16.9009 81.0898 15.8145 81.0898 13.9742C81.0898 12.1339 80.3685 11.0474 78.9035 11.0474C77.4384 11.0474 76.7171 12.1339 76.7171 13.9742C76.7171 15.8145 77.4384 16.9009 78.9035 16.9009Z" fill="#363F44"/>
<path d="M67.3019 11.89C67.3019 11.2248 66.8286 10.8257 65.8369 10.8257C64.5296 10.8257 63.8985 11.3135 63.7858 12.3999H60.4049C60.5176 10.227 62.0953 8.3867 65.8594 8.3867C69.1051 8.3867 70.9082 9.62836 70.9082 13.1981V18.4087C70.9082 19.0073 71.1336 19.2512 71.5844 19.2512V20.0938C70.8632 20.3598 70.2095 20.4485 69.4883 20.4485C67.8654 20.4485 67.4146 19.6947 67.4146 18.8965H67.3696C66.6258 19.739 65.2734 20.4485 63.7407 20.4485C61.3065 20.4485 59.9541 19.096 59.9541 17.1892C59.9541 14.9276 61.6446 13.8855 64.3493 13.3533C65.8369 13.0651 67.3019 12.8434 67.3019 11.89ZM65.0029 18.0096C66.5581 18.0096 67.3019 17.034 67.3019 15.9475V14.5728C66.8512 14.7502 66.2877 14.9054 65.4537 15.0828C64.0337 15.3932 63.5604 15.9697 63.5604 16.6792C63.5604 17.6105 64.1239 18.0096 65.0029 18.0096Z" fill="#363F44"/>
<path d="M54.4503 8.3867C56.7719 8.3867 58.1468 9.82791 58.1468 12.4221V20.0938H54.4954V13.5529C54.4954 11.8456 54.1348 11.2691 52.85 11.2691C51.7005 11.2691 50.9792 11.9565 50.9792 13.5307V20.0938H47.3729V13.5529C47.3729 11.8456 47.0123 11.2691 45.7276 11.2691C44.6006 11.2691 43.8568 11.9565 43.8568 13.5307V20.0938H40.2505V8.74146H43.8568V10.3822H43.9019C44.5104 9.34012 45.7726 8.3867 47.5082 8.3867C49.0183 8.3867 50.0777 9.20708 50.5285 10.3822H50.5735C51.5653 9.25143 52.5795 8.3867 54.4503 8.3867Z" fill="#363F44"/>
<path d="M33.5264 4.24048H37.5835V20.0938H33.5264V4.24048Z" fill="#363F44"/>
</svg>
