<svg xmlns="http://www.w3.org/2000/svg" width="16" height="16" viewBox="0 0 16 16">
  <g id="Group_15" data-name="Group 15" transform="translate(-554 -295)">
    <g id="twitter" transform="translate(553.947 294.173)">
      <g id="Layer_2" data-name="Layer 2" transform="translate(3.004 4.003)">
        <path id="twitter-2" data-name="twitter" d="M6.121,13.826a6.8,6.8,0,0,0,7.025-6.755,4.968,4.968,0,0,0,.909-1.744.27.27,0,0,0-.381-.313,1.154,1.154,0,0,1-1.326-.233,2.389,2.389,0,0,0-3.427-.1,2.536,2.536,0,0,0-.706,2.395,5.354,5.354,0,0,1-4.6-2.192.264.264,0,0,0-.461.147A5.944,5.944,0,0,0,5.98,11.2a4.133,4.133,0,0,1-2.745,1.4.276.276,0,0,0-.086.516,6.755,6.755,0,0,0,2.972.712" transform="translate(-3.004 -4.003)" fill="#0c1023"/>
      </g>
    </g>
    <rect id="Rectangle_43" data-name="Rectangle 43" width="16" height="16" transform="translate(554 295)" fill="none"/>
  </g>
</svg>
